<svg xmlns="http://www.w3.org/2000/svg" width="32" height="40" fill="none"><path fill="#A8DADC" d="M16 19.5c.967 0 1.792-.342 2.475-1.025A3.372 3.372 0 0019.5 16c0-.967-.342-1.792-1.025-2.475A3.372 3.372 0 0016 12.5c-.967 0-1.792.342-2.475 1.025A3.372 3.372 0 0012.5 16c0 .967.342 1.792 1.025 2.475A3.372 3.372 0 0016 19.5zm0 16.55c4.433-4.033 7.708-7.692 9.825-10.975C27.942 21.792 29 18.9 29 16.4c0-3.933-1.258-7.15-3.775-9.65S19.633 3 16 3 9.292 4.25 6.775 6.75C4.258 9.25 3 12.467 3 16.4c0 2.5 1.083 5.392 3.25 8.675 2.167 3.283 5.417 6.942 9.75 10.975zM16 40c-5.367-4.567-9.375-8.808-12.025-12.725C1.325 23.358 0 19.733 0 16.4c0-5 1.608-8.983 4.825-11.95C8.042 1.483 11.767 0 16 0c4.233 0 7.958 1.483 11.175 4.45C30.392 7.417 32 11.4 32 16.4c0 3.333-1.325 6.958-3.975 10.875C25.375 31.192 21.367 35.433 16 40z"/></svg>