<svg xmlns="http://www.w3.org/2000/svg" width="36" height="36" fill="none"><path fill="#A8DADC" d="M33.75 36c-4.067 0-8.108-1-12.125-3C17.608 31 14 28.4 10.8 25.2 7.6 22 5 18.392 3 14.375 1 10.358 0 6.317 0 2.25c0-.633.217-1.167.65-1.6.433-.433.967-.65 1.6-.65h7c.467 0 .875.158 1.225.475.35.317.575.742.675 1.275l1.35 6.3c.067.467.058.892-.025 1.275a1.926 1.926 0 01-.525.975l-5 5.05c1.867 3.1 3.958 5.8 6.275 8.1A34.681 34.681 0 0021.1 29.3l4.75-4.9a2.764 2.764 0 011.15-.775c.433-.15.867-.175 1.3-.075l5.95 1.3c.5.1.917.35 1.25.75.333.4.5.867.5 1.4v6.75c0 .633-.217 1.167-.65 1.6-.433.433-.967.65-1.6.65zM5.45 12.6L9.5 8.5 8.35 3H3c0 1.3.2 2.725.6 4.275C4 8.825 4.617 10.6 5.45 12.6zM23.9 30.75a24.96 24.96 0 004.45 1.55c1.6.4 3.15.633 4.65.7v-5.35l-5.15-1.05-3.95 4.15z"/></svg>